<?xml version="1.0" standalone="no"?><svg xmlns="http://www.w3.org/2000/svg" viewBox="0 0 1440 320"><path fill="#0099ff" fill-opacity="1" d="M0,192L24,192C48,192,96,192,144,197.3C192,203,240,213,288,229.3C336,245,384,267,432,250.7C480,235,528,181,576,160C624,139,672,149,720,165.3C768,181,816,203,864,224C912,245,960,267,1008,272C1056,277,1104,267,1152,256C1200,245,1248,235,1296,197.3C1344,160,1392,96,1416,64L1440,32L1440,0L1416,0C1392,0,1344,0,1296,0C1248,0,1200,0,1152,0C1104,0,1056,0,1008,0C960,0,912,0,864,0C816,0,768,0,720,0C672,0,624,0,576,0C528,0,480,0,432,0C384,0,336,0,288,0C240,0,192,0,144,0C96,0,48,0,24,0L0,0Z"></path></svg>